<?xml version="1.0" encoding="utf-8"?>
<!-- Generator: Adobe Illustrator 26.0.1, SVG Export Plug-In . SVG Version: 6.00 Build 0)  -->
<svg version="1.1" id="Layer_1" xmlns="http://www.w3.org/2000/svg" xmlns:xlink="http://www.w3.org/1999/xlink" x="0px" y="0px"
	 viewBox="0 0 384 512" style="enable-background:new 0 0 384 512;" xml:space="preserve">
<path d="M232.7,167.1h18.5c16.3,0,29.6,13.3,29.6,29.6v148.1c0,16.3-13.3,29.6-29.6,29.6H132.8c-16.3,0-29.6-13.3-29.6-29.6v-148
	c0-16.3,13.3-29.6,29.6-29.6h18.5h4.4c3.4-16.9,18.4-29.6,36.3-29.6s32.9,12.7,36.3,29.6L232.7,167.1L232.7,167.1z M132.8,189.3
	c-4.1,0-7.4,3.3-7.4,7.4v148.1c0,4.1,3.3,7.4,7.4,7.4h118.5c4.1,0,7.4-3.3,7.4-7.4v-148c0-4.1-3.3-7.4-7.4-7.4h-7.4v11.1
	c0,6.2-5,11.1-11.1,11.1H192h-40.7c-6.2,0-11.1-5-11.1-11.1v-11.1h-7.4V189.3z M192,185.6c6.1,0,11.1-5,11.1-11.1s-5-11.1-11.1-11.1
	s-11.1,5-11.1,11.1S185.9,185.6,192,185.6z"/>
</svg>
