<?xml version="1.0" encoding="utf-8"?>
<!-- Generator: Adobe Illustrator 26.0.1, SVG Export Plug-In . SVG Version: 6.00 Build 0)  -->
<svg version="1.1" id="Layer_1" xmlns="http://www.w3.org/2000/svg" xmlns:xlink="http://www.w3.org/1999/xlink" x="0px" y="0px"
	 viewBox="0 0 512 512" style="enable-background:new 0 0 512 512;" xml:space="preserve">
<style type="text/css">
	.st0{fill:#FFFFFF;}
</style>
<path class="st0" d="M441,58.9L453.1,71c9.4,9.4,9.4,24.6,0,33.9L424,134.1L377.9,88L407,58.9c9.4-9.4,24.6-9.4,33.9,0H441z
	 M209.8,256.2L344,121.9l46.1,46.1L255.8,302.2c-2.9,2.9-6.5,5-10.4,6.1L186.9,325l16.7-58.5C204.7,262.6,206.8,259,209.8,256.2
	L209.8,256.2z M373.1,25L175.8,222.2c-8.7,8.7-15,19.4-18.3,31.1l-28.6,100c-2.4,8.4-0.1,17.4,6.1,23.6s15.2,8.5,23.6,6.1l100-28.6
	c11.8-3.4,22.5-9.7,31.1-18.3L487,138.9c28.1-28.1,28.1-73.7,0-101.8L474.9,25C446.8-3.1,401.2-3.1,373.1,25z M88,64
	c-48.6,0-88,39.4-88,88v272c0,48.6,39.4,88,88,88h272c48.6,0,88-39.4,88-88V312c0-13.3-10.7-24-24-24s-24,10.7-24,24v112
	c0,22.1-17.9,40-40,40H88c-22.1,0-40-17.9-40-40V152c0-22.1,17.9-40,40-40h112c13.3,0,24-10.7,24-24s-10.7-24-24-24H88z"/>
</svg>
